# xmcd
#
# Track frame offsets:
#	150
#	26538
#	85046
#	125465
#	158076
#	175695
#	200273
#	243078
#	259367
#	298674
#	300185
#	311343
#
# Disc length: 4351 seconds
#
# Revision: 1
# Processed by: cddbd v1.5.2PL0 Copyright (c) Steve Scherf et al.
# Submitted via: audiograbber 1.83.01
#
DISCID=8e10fd0c
DTITLE=Grateful Dead - 86-04-21 Berkeley Community Theatre, Berkeley CA
DYEAR=1900
DGENRE=
TTITLE0=Touch Of Grey
TTITLE1=Estimated Prophet
TTITLE2=Eyes Of The World
TTITLE3=Drums > Key Jam
TTITLE4=Maybe You Know
TTITLE5=GDTRFB
TTITLE6=Morning Dew
TTITLE7=Around and Around
TTITLE8=Not Fade Away
TTITLE9=Crowd Chant
TTITLE10=Not Fade Away
TTITLE11=Don't Ease Me In
EXTD=
EXTT0=
EXTT1=
EXTT2=
EXTT3=
EXTT4=
EXTT5=
EXTT6=
EXTT7=
EXTT8=
EXTT9=
EXTT10=
EXTT11=
PLAYORDER=
